{"asset":{"version":"2.0","generator":"THREE.GLTFExporter r181"},"scenes":[{"nodes":[0,1,2,3,4,5,6,7,8,9,10,11]}],"scene":0,"nodes":[{"matrix":[258.133,0,0,0,0,3.267,0,0,0,0,244.133,0,0.045,0.05,-0.011,1],"name":"cube-1","extras":{"archdiscStudioPrimitive":true,"archdiscStudioPrimitiveKind":"cube","pickable":true,"archdiscStudioKeyframes":[]},"mesh":0},{"matrix":[88.2507792430945,0,-16.058952736296426,0,0,25.133,0,0,5.5737277094661835,0,30.630005687572584,0,-2.354,0.45,-1.194,1],"name":"cube-2","extras":{"archdiscStudioPrimitive":true,"archdiscStudioPrimitiveKind":"cube","pickable":true,"archdiscStudioKeyframes":[]},"mesh":1},{"matrix":[88.3816304542353,0,-16.08276366956206,0,0,17.133,0,0,1.4560475206722276,0,8.001600753445791,0,-2.357,0.75,-1.65,1],"name":"cube-3","extras":{"archdiscStudioPrimitive":true,"archdiscStudioPrimitiveKind":"cube","pickable":true,"archdiscStudioKeyframes":[]},"mesh":2},{"matrix":[53.133,0,0,0,0,15.867,0,0,0,0,28.133,0,-0.354,0.23,-0.042,1],"name":"cube-4","extras":{"archdiscStudioPrimitive":true,"archdiscStudioPrimitiveKind":"cube","pickable":true,"archdiscStudioKeyframes":[]},"mesh":3},{"matrix":[6.133,0,0,0,0,69.133,0,0,0,0,6.133,0,-3.842,1.05,-2.355,1],"name":"cylinder-5","extras":{"archdiscStudioPrimitive":true,"archdiscStudioPrimitiveKind":"cylinder","pickable":true,"archdiscStudioKeyframes":[]},"mesh":4},{"matrix":[14.133,0,0,0,0,13.067,0,0,0,0,14.133,0,-3.757,2.15,-2.347,1],"name":"sphere-6","extras":{"archdiscStudioPrimitive":true,"archdiscStudioPrimitiveKind":"sphere","pickable":true,"archdiscStudioKeyframes":[]},"mesh":5},{"matrix":[31.70779773491485,0,-3.181391488284473,0,0,28.133,0,0,3.108113760465701,0,30.97746467760078,0,2.316,0.45,2.552,1],"name":"cube-7","extras":{"archdiscStudioPrimitive":true,"archdiscStudioPrimitiveKind":"cube","pickable":true,"archdiscStudioKeyframes":[]},"mesh":6},{"matrix":[22.133,0,0,0,0,13.133,0,0,0,0,20.867,0,3.031,0.2,3.451,1],"name":"cube-8","extras":{"archdiscStudioPrimitive":true,"archdiscStudioPrimitiveKind":"cube","pickable":true,"archdiscStudioKeyframes":[]},"mesh":7},{"matrix":[17.133,0,0,0,0,19.867,0,0,0,0,17.133,0,-3.957,0.33,0.717,1],"name":"cube-9","extras":{"archdiscStudioPrimitive":true,"archdiscStudioPrimitiveKind":"cube","pickable":true,"archdiscStudioKeyframes":[]},"mesh":8},{"matrix":[28.133,0,0,0,0,65.133,0,0,0,0,11.133,0,-4.354,1,-1.41,1],"name":"cube-10","extras":{"archdiscStudioPrimitive":true,"archdiscStudioPrimitiveKind":"cube","pickable":true,"archdiscStudioKeyframes":[]},"mesh":9},{"matrix":[101.133,0,0,0,0,0.667,0,0,0,0,70.133,0,-0.647,0.06,0.02,1],"name":"cube-11","extras":{"archdiscStudioPrimitive":true,"archdiscStudioPrimitiveKind":"cube","pickable":true,"archdiscStudioKeyframes":[]},"mesh":10},{"matrix":[15.867,0,0,0,0,15.867,0,0,0,0,15.867,0,0.354,0.3,-0.194,1],"name":"cube-12","extras":{"archdiscStudioPrimitive":true,"archdiscStudioPrimitiveKind":"cube","pickable":true,"archdiscStudioKeyframes":[]},"mesh":11}],"bufferViews":[{"buffer":0,"byteOffset":0,"byteLength":288,"target":34962,"byteStride":12},{"buffer":0,"byteOffset":288,"byteLength":288,"target":34962,"byteStride":12},{"buffer":0,"byteOffset":576,"byteLength":192,"target":34962,"byteStride":8},{"buffer":0,"byteOffset":768,"byteLength":72,"target":34963},{"buffer":0,"byteOffset":840,"byteLength":288,"target":34962,"byteStride":12},{"buffer":0,"byteOffset":1128,"byteLength":288,"target":34962,"byteStride":12},{"buffer":0,"byteOffset":1416,"byteLength":192,"target":34962,"byteStride":8},{"buffer":0,"byteOffset":1608,"byteLength":72,"target":34963},{"buffer":0,"byteOffset":1680,"byteLength":288,"target":34962,"byteStride":12},{"buffer":0,"byteOffset":1968,"byteLength":288,"target":34962,"byteStride":12},{"buffer":0,"byteOffset":2256,"byteLength":192,"target":34962,"byteStride":8},{"buffer":0,"byteOffset":2448,"byteLength":72,"target":34963},{"buffer":0,"byteOffset":2520,"byteLength":288,"target":34962,"byteStride":12},{"buffer":0,"byteOffset":2808,"byteLength":288,"target":34962,"byteStride":12},{"buffer":0,"byteOffset":3096,"byteLength":192,"target":34962,"byteStride":8},{"buffer":0,"byteOffset":3288,"byteLength":72,"target":34963},{"buffer":0,"byteOffset":3360,"byteLength":2352,"target":34962,"byteStride":12},{"buffer":0,"byteOffset":5712,"byteLength":2352,"target":34962,"byteStride":12},{"buffer":0,"byteOffset":8064,"byteLength":1568,"target":34962,"byteStride":8},{"buffer":0,"byteOffset":9632,"byteLength":768,"target":34963},{"buffer":0,"byteOffset":10400,"byteLength":9900,"target":34962,"byteStride":12},{"buffer":0,"byteOffset":20300,"byteLength":9900,"target":34962,"byteStride":12},{"buffer":0,"byteOffset":30200,"byteLength":6600,"target":34962,"byteStride":8},{"buffer":0,"byteOffset":36800,"byteLength":8832,"target":34963},{"buffer":0,"byteOffset":45632,"byteLength":288,"target":34962,"byteStride":12},{"buffer":0,"byteOffset":45920,"byteLength":288,"target":34962,"byteStride":12},{"buffer":0,"byteOffset":46208,"byteLength":192,"target":34962,"byteStride":8},{"buffer":0,"byteOffset":46400,"byteLength":72,"target":34963},{"buffer":0,"byteOffset":46472,"byteLength":288,"target":34962,"byteStride":12},{"buffer":0,"byteOffset":46760,"byteLength":288,"target":34962,"byteStride":12},{"buffer":0,"byteOffset":47048,"byteLength":192,"target":34962,"byteStride":8},{"buffer":0,"byteOffset":47240,"byteLength":72,"target":34963},{"buffer":0,"byteOffset":47312,"byteLength":288,"target":34962,"byteStride":12},{"buffer":0,"byteOffset":47600,"byteLength":288,"target":34962,"byteStride":12},{"buffer":0,"byteOffset":47888,"byteLength":192,"target":34962,"byteStride":8},{"buffer":0,"byteOffset":48080,"byteLength":72,"target":34963},{"buffer":0,"byteOffset":48152,"byteLength":288,"target":34962,"byteStride":12},{"buffer":0,"byteOffset":48440,"byteLength":288,"target":34962,"byteStride":12},{"buffer":0,"byteOffset":48728,"byteLength":192,"target":34962,"byteStride":8},{"buffer":0,"byteOffset":48920,"byteLength":72,"target":34963},{"buffer":0,"byteOffset":48992,"byteLength":288,"target":34962,"byteStride":12},{"buffer":0,"byteOffset":49280,"byteLength":288,"target":34962,"byteStride":12},{"buffer":0,"byteOffset":49568,"byteLength":192,"target":34962,"byteStride":8},{"buffer":0,"byteOffset":49760,"byteLength":72,"target":34963},{"buffer":0,"byteOffset":49832,"byteLength":288,"target":34962,"byteStride":12},{"buffer":0,"byteOffset":50120,"byteLength":288,"target":34962,"byteStride":12},{"buffer":0,"byteOffset":50408,"byteLength":192,"target":34962,"byteStride":8},{"buffer":0,"byteOffset":50600,"byteLength":72,"target":34963}],"buffers":[{"byteLength":50672,"uri":"data:application/octet-stream;base64,"}],"accessors":[{"bufferView":0,"componentType":5126,"count":24,"max":[0.014999999664723873,0.014999999664723873,0.014999999664723873],"min":[-0.014999999664723873,-0.014999999664723873,-0.014999999664723873],"type":"VEC3"},{"bufferView":1,"componentType":5126,"count":24,"max":[1,1,1],"min":[-1,-1,-1],"type":"VEC3"},{"bufferView":2,"componentType":5126,"count":24,"max":[1,1],"min":[0,0],"type":"VEC2"},{"bufferView":3,"componentType":5123,"count":36,"max":[23],"min":[0],"type":"SCALAR"},{"bufferView":4,"componentType":5126,"count":24,"max":[0.014999999664723873,0.014999999664723873,0.014999999664723873],"min":[-0.014999999664723873,-0.014999999664723873,-0.014999999664723873],"type":"VEC3"},{"bufferView":5,"componentType":5126,"count":24,"max":[1,1,1],"min":[-1,-1,-1],"type":"VEC3"},{"bufferView":6,"componentType":5126,"count":24,"max":[1,1],"min":[0,0],"type":"VEC2"},{"bufferView":7,"componentType":5123,"count":36,"max":[23],"min":[0],"type":"SCALAR"},{"bufferView":8,"componentType":5126,"count":24,"max":[0.014999999664723873,0.014999999664723873,0.014999999664723873],"min":[-0.014999999664723873,-0.014999999664723873,-0.014999999664723873],"type":"VEC3"},{"bufferView":9,"componentType":5126,"count":24,"max":[1,1,1],"min":[-1,-1,-1],"type":"VEC3"},{"bufferView":10,"componentType":5126,"count":24,"max":[1,1],"min":[0,0],"type":"VEC2"},{"bufferView":11,"componentType":5123,"count":36,"max":[23],"min":[0],"type":"SCALAR"},{"bufferView":12,"componentType":5126,"count":24,"max":[0.014999999664723873,0.014999999664723873,0.014999999664723873],"min":[-0.014999999664723873,-0.014999999664723873,-0.014999999664723873],"type":"VEC3"},{"bufferView":13,"componentType":5126,"count":24,"max":[1,1,1],"min":[-1,-1,-1],"type":"VEC3"},{"bufferView":14,"componentType":5126,"count":24,"max":[1,1],"min":[0,0],"type":"VEC2"},{"bufferView":15,"componentType":5123,"count":36,"max":[23],"min":[0],"type":"SCALAR"},{"bufferView":16,"componentType":5126,"count":196,"max":[0.014999999664723873,0.014999999664723873,0.014999999664723873],"min":[-0.014999999664723873,-0.014999999664723873,-0.014999999664723873],"type":"VEC3"},{"bufferView":17,"componentType":5126,"count":196,"max":[1,1,1],"min":[-1,-1,-1],"type":"VEC3"},{"bufferView":18,"componentType":5126,"count":196,"max":[1,1],"min":[0,0],"type":"VEC2"},{"bufferView":19,"componentType":5123,"count":384,"max":[195],"min":[0],"type":"SCALAR"},{"bufferView":20,"componentType":5126,"count":825,"max":[0.017999999225139618,0.017999999225139618,0.017999999225139618],"min":[-0.017999999225139618,-0.017999999225139618,-0.017999999225139618],"type":"VEC3"},{"bufferView":21,"componentType":5126,"count":825,"max":[1,1,1],"min":[-1,-1,-1],"type":"VEC3"},{"bufferView":22,"componentType":5126,"count":825,"max":[1.015625,1],"min":[-0.015625,0],"type":"VEC2"},{"bufferView":23,"componentType":5123,"count":4416,"max":[824],"min":[0],"type":"SCALAR"},{"bufferView":24,"componentType":5126,"count":24,"max":[0.014999999664723873,0.014999999664723873,0.014999999664723873],"min":[-0.014999999664723873,-0.014999999664723873,-0.014999999664723873],"type":"VEC3"},{"bufferView":25,"componentType":5126,"count":24,"max":[1,1,1],"min":[-1,-1,-1],"type":"VEC3"},{"bufferView":26,"componentType":5126,"count":24,"max":[1,1],"min":[0,0],"type":"VEC2"},{"bufferView":27,"componentType":5123,"count":36,"max":[23],"min":[0],"type":"SCALAR"},{"bufferView":28,"componentType":5126,"count":24,"max":[0.014999999664723873,0.014999999664723873,0.014999999664723873],"min":[-0.014999999664723873,-0.014999999664723873,-0.014999999664723873],"type":"VEC3"},{"bufferView":29,"componentType":5126,"count":24,"max":[1,1,1],"min":[-1,-1,-1],"type":"VEC3"},{"bufferView":30,"componentType":5126,"count":24,"max":[1,1],"min":[0,0],"type":"VEC2"},{"bufferView":31,"componentType":5123,"count":36,"max":[23],"min":[0],"type":"SCALAR"},{"bufferView":32,"componentType":5126,"count":24,"max":[0.014999999664723873,0.014999999664723873,0.014999999664723873],"min":[-0.014999999664723873,-0.014999999664723873,-0.014999999664723873],"type":"VEC3"},{"bufferView":33,"componentType":5126,"count":24,"max":[1,1,1],"min":[-1,-1,-1],"type":"VEC3"},{"bufferView":34,"componentType":5126,"count":24,"max":[1,1],"min":[0,0],"type":"VEC2"},{"bufferView":35,"componentType":5123,"count":36,"max":[23],"min":[0],"type":"SCALAR"},{"bufferView":36,"componentType":5126,"count":24,"max":[0.014999999664723873,0.014999999664723873,0.014999999664723873],"min":[-0.014999999664723873,-0.014999999664723873,-0.014999999664723873],"type":"VEC3"},{"bufferView":37,"componentType":5126,"count":24,"max":[1,1,1],"min":[-1,-1,-1],"type":"VEC3"},{"bufferView":38,"componentType":5126,"count":24,"max":[1,1],"min":[0,0],"type":"VEC2"},{"bufferView":39,"componentType":5123,"count":36,"max":[23],"min":[0],"type":"SCALAR"},{"bufferView":40,"componentType":5126,"count":24,"max":[0.014999999664723873,0.014999999664723873,0.014999999664723873],"min":[-0.014999999664723873,-0.014999999664723873,-0.014999999664723873],"type":"VEC3"},{"bufferView":41,"componentType":5126,"count":24,"max":[1,1,1],"min":[-1,-1,-1],"type":"VEC3"},{"bufferView":42,"componentType":5126,"count":24,"max":[1,1],"min":[0,0],"type":"VEC2"},{"bufferView":43,"componentType":5123,"count":36,"max":[23],"min":[0],"type":"SCALAR"},{"bufferView":44,"componentType":5126,"count":24,"max":[0.014999999664723873,0.014999999664723873,0.014999999664723873],"min":[-0.014999999664723873,-0.014999999664723873,-0.014999999664723873],"type":"VEC3"},{"bufferView":45,"componentType":5126,"count":24,"max":[1,1,1],"min":[-1,-1,-1],"type":"VEC3"},{"bufferView":46,"componentType":5126,"count":24,"max":[1,1],"min":[0,0],"type":"VEC2"},{"bufferView":47,"componentType":5123,"count":36,"max":[23],"min":[0],"type":"SCALAR"}],"materials":[{"pbrMetallicRoughness":{"baseColorFactor":[0.6866853124288864,0.6104955708001716,0.4910208498384856,1],"metallicFactor":0,"roughnessFactor":0.78}},{"pbrMetallicRoughness":{"baseColorFactor":[0.6866853124288864,0.6104955708001716,0.4910208498384856,1],"metallicFactor":0,"roughnessFactor":0.78}},{"pbrMetallicRoughness":{"baseColorFactor":[0.6866853124288864,0.6104955708001716,0.4910208498384856,1],"metallicFactor":0,"roughnessFactor":0.78}},{"pbrMetallicRoughness":{"baseColorFactor":[0.6866853124288864,0.6104955708001716,0.4910208498384856,1],"metallicFactor":0,"roughnessFactor":0.78}},{"pbrMetallicRoughness":{"baseColorFactor":[0.6866853124288864,0.6104955708001716,0.4910208498384856,1],"metallicFactor":0,"roughnessFactor":0.78}},{"pbrMetallicRoughness":{"baseColorFactor":[0.6866853124288864,0.6104955708001716,0.4910208498384856,1],"metallicFactor":0,"roughnessFactor":0.78}},{"pbrMetallicRoughness":{"baseColorFactor":[0.6866853124288864,0.6104955708001716,0.4910208498384856,1],"metallicFactor":0,"roughnessFactor":0.78}},{"pbrMetallicRoughness":{"baseColorFactor":[0.6866853124288864,0.6104955708001716,0.4910208498384856,1],"metallicFactor":0,"roughnessFactor":0.78}},{"pbrMetallicRoughness":{"baseColorFactor":[0.6866853124288864,0.6104955708001716,0.4910208498384856,1],"metallicFactor":0,"roughnessFactor":0.78}},{"pbrMetallicRoughness":{"baseColorFactor":[0.6866853124288864,0.6104955708001716,0.4910208498384856,1],"metallicFactor":0,"roughnessFactor":0.78}},{"pbrMetallicRoughness":{"baseColorFactor":[0.6866853124288864,0.6104955708001716,0.4910208498384856,1],"metallicFactor":0,"roughnessFactor":0.78}},{"pbrMetallicRoughness":{"baseColorFactor":[0.6866853124288864,0.6104955708001716,0.4910208498384856,1],"metallicFactor":0,"roughnessFactor":0.78}}],"meshes":[{"primitives":[{"mode":4,"attributes":{"POSITION":0,"NORMAL":1,"TEXCOORD_0":2},"indices":3,"material":0}]},{"primitives":[{"mode":4,"attributes":{"POSITION":4,"NORMAL":5,"TEXCOORD_0":6},"indices":7,"material":1}]},{"primitives":[{"mode":4,"attributes":{"POSITION":8,"NORMAL":9,"TEXCOORD_0":10},"indices":11,"material":2}]},{"primitives":[{"mode":4,"attributes":{"POSITION":12,"NORMAL":13,"TEXCOORD_0":14},"indices":15,"material":3}]},{"primitives":[{"mode":4,"attributes":{"POSITION":16,"NORMAL":17,"TEXCOORD_0":18},"indices":19,"material":4}]},{"primitives":[{"mode":4,"attributes":{"POSITION":20,"NORMAL":21,"TEXCOORD_0":22},"indices":23,"material":5}]},{"primitives":[{"mode":4,"attributes":{"POSITION":24,"NORMAL":25,"TEXCOORD_0":26},"indices":27,"material":6}]},{"primitives":[{"mode":4,"attributes":{"POSITION":28,"NORMAL":29,"TEXCOORD_0":30},"indices":31,"material":7}]},{"primitives":[{"mode":4,"attributes":{"POSITION":32,"NORMAL":33,"TEXCOORD_0":34},"indices":35,"material":8}]},{"primitives":[{"mode":4,"attributes":{"POSITION":36,"NORMAL":37,"TEXCOORD_0":38},"indices":39,"material":9}]},{"primitives":[{"mode":4,"attributes":{"POSITION":40,"NORMAL":41,"TEXCOORD_0":42},"indices":43,"material":10}]},{"primitives":[{"mode":4,"attributes":{"POSITION":44,"NORMAL":45,"TEXCOORD_0":46},"indices":47,"material":11}]}]}