{"asset":{"version":"2.0","generator":"THREE.GLTFExporter r181"},"scenes":[{"nodes":[0,1,2,3,4,5,6,7,8]}],"scene":0,"nodes":[{"matrix":[191.367,0,0,0,0,3.267,0,0,0,0,176.367,0,-0.012,0.05,0.023,1],"name":"cube-25","extras":{"archdiscStudioPrimitive":true,"archdiscStudioPrimitiveKind":"cube","pickable":true,"archdiscStudioKeyframes":[]},"mesh":0},{"matrix":[194.5,0,0,0,0,133.367,0,0,0,0,3.267,0,-0.02,2,-3.05,1],"name":"cube-26","extras":{"archdiscStudioPrimitive":true,"archdiscStudioPrimitiveKind":"cube","pickable":true,"archdiscStudioKeyframes":[]},"mesh":1},{"matrix":[40.867,0,0,0,0,16.367,0,0,0,0,40.767,0,-0.02,0.25,-0.031,1],"name":"cube-27","extras":{"archdiscStudioPrimitive":true,"archdiscStudioPrimitiveKind":"cube","pickable":true,"archdiscStudioKeyframes":[]},"mesh":2},{"matrix":[42.267,0,0,0,0,3.267,0,0,0,0,44.267,0,-0.014,0.55,-0.023,1],"name":"cube-28","extras":{"archdiscStudioPrimitive":true,"archdiscStudioPrimitiveKind":"cube","pickable":true,"archdiscStudioKeyframes":[]},"mesh":3},{"matrix":[23.267,0,0,0,0,23.767,0,0,0,0,22.767,0,-0.02,1,0.031,1],"name":"torus-29","extras":{"archdiscStudioPrimitive":true,"archdiscStudioPrimitiveKind":"torus","pickable":true,"archdiscStudioKeyframes":[]},"mesh":4},{"matrix":[13.267,0,0,0,0,19.767,0,0,0,0,12.767,0,-1.9,0.4,-1.041,1],"name":"cylinder-30","extras":{"archdiscStudioPrimitive":true,"archdiscStudioPrimitiveKind":"cylinder","pickable":true,"archdiscStudioKeyframes":[]},"mesh":5},{"matrix":[11.767,0,0,0,0,17.767,0,0,0,0,11.767,0,2.247,0.3,0.748,1],"name":"cube-31","extras":{"archdiscStudioPrimitive":true,"archdiscStudioPrimitiveKind":"cube","pickable":true,"archdiscStudioKeyframes":[]},"mesh":6},{"matrix":[2.067,0,0,0,0,102.767,0,0,0,0,50.767,0,-3.52,1.5,0.01,1],"name":"cube-32","extras":{"archdiscStudioPrimitive":true,"archdiscStudioPrimitiveKind":"cube","pickable":true,"archdiscStudioKeyframes":[]},"mesh":7},{"matrix":[1.967,0,0,0,0,103.767,0,0,0,0,50.767,0,3.49,1.5,-0.027,1],"name":"cube-33","extras":{"archdiscStudioPrimitive":true,"archdiscStudioPrimitiveKind":"cube","pickable":true,"archdiscStudioKeyframes":[]},"mesh":8}],"bufferViews":[{"buffer":0,"byteOffset":0,"byteLength":288,"target":34962,"byteStride":12},{"buffer":0,"byteOffset":288,"byteLength":288,"target":34962,"byteStride":12},{"buffer":0,"byteOffset":576,"byteLength":192,"target":34962,"byteStride":8},{"buffer":0,"byteOffset":768,"byteLength":72,"target":34963},{"buffer":0,"byteOffset":840,"byteLength":288,"target":34962,"byteStride":12},{"buffer":0,"byteOffset":1128,"byteLength":288,"target":34962,"byteStride":12},{"buffer":0,"byteOffset":1416,"byteLength":192,"target":34962,"byteStride":8},{"buffer":0,"byteOffset":1608,"byteLength":72,"target":34963},{"buffer":0,"byteOffset":1680,"byteLength":288,"target":34962,"byteStride":12},{"buffer":0,"byteOffset":1968,"byteLength":288,"target":34962,"byteStride":12},{"buffer":0,"byteOffset":2256,"byteLength":192,"target":34962,"byteStride":8},{"buffer":0,"byteOffset":2448,"byteLength":72,"target":34963},{"buffer":0,"byteOffset":2520,"byteLength":288,"target":34962,"byteStride":12},{"buffer":0,"byteOffset":2808,"byteLength":288,"target":34962,"byteStride":12},{"buffer":0,"byteOffset":3096,"byteLength":192,"target":34962,"byteStride":8},{"buffer":0,"byteOffset":3288,"byteLength":72,"target":34963},{"buffer":0,"byteOffset":3360,"byteLength":6732,"target":34962,"byteStride":12},{"buffer":0,"byteOffset":10092,"byteLength":6732,"target":34962,"byteStride":12},{"buffer":0,"byteOffset":16824,"byteLength":4488,"target":34962,"byteStride":8},{"buffer":0,"byteOffset":21312,"byteLength":6144,"target":34963},{"buffer":0,"byteOffset":27456,"byteLength":2352,"target":34962,"byteStride":12},{"buffer":0,"byteOffset":29808,"byteLength":2352,"target":34962,"byteStride":12},{"buffer":0,"byteOffset":32160,"byteLength":1568,"target":34962,"byteStride":8},{"buffer":0,"byteOffset":33728,"byteLength":768,"target":34963},{"buffer":0,"byteOffset":34496,"byteLength":288,"target":34962,"byteStride":12},{"buffer":0,"byteOffset":34784,"byteLength":288,"target":34962,"byteStride":12},{"buffer":0,"byteOffset":35072,"byteLength":192,"target":34962,"byteStride":8},{"buffer":0,"byteOffset":35264,"byteLength":72,"target":34963},{"buffer":0,"byteOffset":35336,"byteLength":288,"target":34962,"byteStride":12},{"buffer":0,"byteOffset":35624,"byteLength":288,"target":34962,"byteStride":12},{"buffer":0,"byteOffset":35912,"byteLength":192,"target":34962,"byteStride":8},{"buffer":0,"byteOffset":36104,"byteLength":72,"target":34963},{"buffer":0,"byteOffset":36176,"byteLength":288,"target":34962,"byteStride":12},{"buffer":0,"byteOffset":36464,"byteLength":288,"target":34962,"byteStride":12},{"buffer":0,"byteOffset":36752,"byteLength":192,"target":34962,"byteStride":8},{"buffer":0,"byteOffset":36944,"byteLength":72,"target":34963}],"buffers":[{"byteLength":37016,"uri":"data:application/octet-stream;base64,"}],"accessors":[{"bufferView":0,"componentType":5126,"count":24,"max":[0.014999999664723873,0.014999999664723873,0.014999999664723873],"min":[-0.014999999664723873,-0.014999999664723873,-0.014999999664723873],"type":"VEC3"},{"bufferView":1,"componentType":5126,"count":24,"max":[1,1,1],"min":[-1,-1,-1],"type":"VEC3"},{"bufferView":2,"componentType":5126,"count":24,"max":[1,1],"min":[0,0],"type":"VEC2"},{"bufferView":3,"componentType":5123,"count":36,"max":[23],"min":[0],"type":"SCALAR"},{"bufferView":4,"componentType":5126,"count":24,"max":[0.014999999664723873,0.014999999664723873,0.014999999664723873],"min":[-0.014999999664723873,-0.014999999664723873,-0.014999999664723873],"type":"VEC3"},{"bufferView":5,"componentType":5126,"count":24,"max":[1,1,1],"min":[-1,-1,-1],"type":"VEC3"},{"bufferView":6,"componentType":5126,"count":24,"max":[1,1],"min":[0,0],"type":"VEC2"},{"bufferView":7,"componentType":5123,"count":36,"max":[23],"min":[0],"type":"SCALAR"},{"bufferView":8,"componentType":5126,"count":24,"max":[0.014999999664723873,0.014999999664723873,0.014999999664723873],"min":[-0.014999999664723873,-0.014999999664723873,-0.014999999664723873],"type":"VEC3"},{"bufferView":9,"componentType":5126,"count":24,"max":[1,1,1],"min":[-1,-1,-1],"type":"VEC3"},{"bufferView":10,"componentType":5126,"count":24,"max":[1,1],"min":[0,0],"type":"VEC2"},{"bufferView":11,"componentType":5123,"count":36,"max":[23],"min":[0],"type":"SCALAR"},{"bufferView":12,"componentType":5126,"count":24,"max":[0.014999999664723873,0.014999999664723873,0.014999999664723873],"min":[-0.014999999664723873,-0.014999999664723873,-0.014999999664723873],"type":"VEC3"},{"bufferView":13,"componentType":5126,"count":24,"max":[1,1,1],"min":[-1,-1,-1],"type":"VEC3"},{"bufferView":14,"componentType":5126,"count":24,"max":[1,1],"min":[0,0],"type":"VEC2"},{"bufferView":15,"componentType":5123,"count":36,"max":[23],"min":[0],"type":"SCALAR"},{"bufferView":16,"componentType":5126,"count":561,"max":[0.020400000736117363,0.020400000736117363,0.005400000140070915],"min":[-0.020400000736117363,-0.020400000736117363,-0.005400000140070915],"type":"VEC3"},{"bufferView":17,"componentType":5126,"count":561,"max":[1,1,1],"min":[-1,-1,-1],"type":"VEC3"},{"bufferView":18,"componentType":5126,"count":561,"max":[1,1],"min":[0,0],"type":"VEC2"},{"bufferView":19,"componentType":5123,"count":3072,"max":[560],"min":[0],"type":"SCALAR"},{"bufferView":20,"componentType":5126,"count":196,"max":[0.014999999664723873,0.014999999664723873,0.014999999664723873],"min":[-0.014999999664723873,-0.014999999664723873,-0.014999999664723873],"type":"VEC3"},{"bufferView":21,"componentType":5126,"count":196,"max":[1,1,1],"min":[-1,-1,-1],"type":"VEC3"},{"bufferView":22,"componentType":5126,"count":196,"max":[1,1],"min":[0,0],"type":"VEC2"},{"bufferView":23,"componentType":5123,"count":384,"max":[195],"min":[0],"type":"SCALAR"},{"bufferView":24,"componentType":5126,"count":24,"max":[0.014999999664723873,0.014999999664723873,0.014999999664723873],"min":[-0.014999999664723873,-0.014999999664723873,-0.014999999664723873],"type":"VEC3"},{"bufferView":25,"componentType":5126,"count":24,"max":[1,1,1],"min":[-1,-1,-1],"type":"VEC3"},{"bufferView":26,"componentType":5126,"count":24,"max":[1,1],"min":[0,0],"type":"VEC2"},{"bufferView":27,"componentType":5123,"count":36,"max":[23],"min":[0],"type":"SCALAR"},{"bufferView":28,"componentType":5126,"count":24,"max":[0.014999999664723873,0.014999999664723873,0.014999999664723873],"min":[-0.014999999664723873,-0.014999999664723873,-0.014999999664723873],"type":"VEC3"},{"bufferView":29,"componentType":5126,"count":24,"max":[1,1,1],"min":[-1,-1,-1],"type":"VEC3"},{"bufferView":30,"componentType":5126,"count":24,"max":[1,1],"min":[0,0],"type":"VEC2"},{"bufferView":31,"componentType":5123,"count":36,"max":[23],"min":[0],"type":"SCALAR"},{"bufferView":32,"componentType":5126,"count":24,"max":[0.014999999664723873,0.014999999664723873,0.014999999664723873],"min":[-0.014999999664723873,-0.014999999664723873,-0.014999999664723873],"type":"VEC3"},{"bufferView":33,"componentType":5126,"count":24,"max":[1,1,1],"min":[-1,-1,-1],"type":"VEC3"},{"bufferView":34,"componentType":5126,"count":24,"max":[1,1],"min":[0,0],"type":"VEC2"},{"bufferView":35,"componentType":5123,"count":36,"max":[23],"min":[0],"type":"SCALAR"}],"materials":[{"pbrMetallicRoughness":{"baseColorFactor":[0.6866853124288864,0.6104955708001716,0.4910208498384856,1],"metallicFactor":0,"roughnessFactor":0.78}},{"pbrMetallicRoughness":{"baseColorFactor":[0.6866853124288864,0.6104955708001716,0.4910208498384856,1],"metallicFactor":0,"roughnessFactor":0.78}},{"pbrMetallicRoughness":{"baseColorFactor":[0.6866853124288864,0.6104955708001716,0.4910208498384856,1],"metallicFactor":0,"roughnessFactor":0.78}},{"pbrMetallicRoughness":{"baseColorFactor":[0.6866853124288864,0.6104955708001716,0.4910208498384856,1],"metallicFactor":0,"roughnessFactor":0.78}},{"pbrMetallicRoughness":{"baseColorFactor":[0.6866853124288864,0.6104955708001716,0.4910208498384856,1],"metallicFactor":0,"roughnessFactor":0.78}},{"pbrMetallicRoughness":{"baseColorFactor":[0.6866853124288864,0.6104955708001716,0.4910208498384856,1],"metallicFactor":0,"roughnessFactor":0.78}},{"pbrMetallicRoughness":{"baseColorFactor":[0.6866853124288864,0.6104955708001716,0.4910208498384856,1],"metallicFactor":0,"roughnessFactor":0.78}},{"pbrMetallicRoughness":{"baseColorFactor":[0.6866853124288864,0.6104955708001716,0.4910208498384856,1],"metallicFactor":0,"roughnessFactor":0.78}},{"pbrMetallicRoughness":{"baseColorFactor":[0.6866853124288864,0.6104955708001716,0.4910208498384856,1],"metallicFactor":0,"roughnessFactor":0.78}}],"meshes":[{"primitives":[{"mode":4,"attributes":{"POSITION":0,"NORMAL":1,"TEXCOORD_0":2},"indices":3,"material":0}]},{"primitives":[{"mode":4,"attributes":{"POSITION":4,"NORMAL":5,"TEXCOORD_0":6},"indices":7,"material":1}]},{"primitives":[{"mode":4,"attributes":{"POSITION":8,"NORMAL":9,"TEXCOORD_0":10},"indices":11,"material":2}]},{"primitives":[{"mode":4,"attributes":{"POSITION":12,"NORMAL":13,"TEXCOORD_0":14},"indices":15,"material":3}]},{"primitives":[{"mode":4,"attributes":{"POSITION":16,"NORMAL":17,"TEXCOORD_0":18},"indices":19,"material":4}]},{"primitives":[{"mode":4,"attributes":{"POSITION":20,"NORMAL":21,"TEXCOORD_0":22},"indices":23,"material":5}]},{"primitives":[{"mode":4,"attributes":{"POSITION":24,"NORMAL":25,"TEXCOORD_0":26},"indices":27,"material":6}]},{"primitives":[{"mode":4,"attributes":{"POSITION":28,"NORMAL":29,"TEXCOORD_0":30},"indices":31,"material":7}]},{"primitives":[{"mode":4,"attributes":{"POSITION":32,"NORMAL":33,"TEXCOORD_0":34},"indices":35,"material":8}]}]}