{"asset":{"version":"2.0","generator":"THREE.GLTFExporter r181"},"scenes":[{"nodes":[0,1,2,3,4,5,6,7,8,9,10,11]}],"scene":0,"nodes":[{"matrix":[208.133,0,0,0,0,3.133,0,0,0,0,173.133,0,0.045,0.05,0.02,1],"name":"cube-13","extras":{"archdiscStudioPrimitive":true,"archdiscStudioPrimitiveKind":"cube","pickable":true,"archdiscStudioKeyframes":[]},"mesh":0},{"matrix":[79.133,0,0,0,0,11.133,0,0,0,0,60.133,0,-0.354,0.175,0.647,1],"name":"cube-14","extras":{"archdiscStudioPrimitive":true,"archdiscStudioPrimitiveKind":"cube","pickable":true,"archdiscStudioKeyframes":[]},"mesh":1},{"matrix":[79.133,0,0,0,0,8.5,0,0,0,0,50.833,0,-0.394,0.45,0.55,1],"name":"cube-15","extras":{"archdiscStudioPrimitive":true,"archdiscStudioPrimitiveKind":"cube","pickable":true,"archdiscStudioKeyframes":[]},"mesh":2},{"matrix":[24.833,0,0,0,0,8.267,0,0,0,0,15.833,0,-1.15,0.6,1.05,1],"name":"cube-16","extras":{"archdiscStudioPrimitive":true,"archdiscStudioPrimitiveKind":"cube","pickable":true,"archdiscStudioKeyframes":[]},"mesh":3},{"matrix":[24.833,0,0,0,0,8.267,0,0,0,0,15.833,0,0.25,0.6,1.05,1],"name":"cube-17","extras":{"archdiscStudioPrimitive":true,"archdiscStudioPrimitiveKind":"cube","pickable":true,"archdiscStudioKeyframes":[]},"mesh":4},{"matrix":[17.133,0,0,0,0,18.133,0,0,0,0,2.833,0,-1.942,0.3,0.55,1],"name":"cube-18","extras":{"archdiscStudioPrimitive":true,"archdiscStudioPrimitiveKind":"cube","pickable":true,"archdiscStudioKeyframes":[]},"mesh":5},{"matrix":[15.833,0,0,0,0,17.833,0,0,0,0,2.833,0,1.276,0.3,0.45,1],"name":"cube-19","extras":{"archdiscStudioPrimitive":true,"archdiscStudioPrimitiveKind":"cube","pickable":true,"archdiscStudioKeyframes":[]},"mesh":6},{"matrix":[3.833,0,0,0,0,13.133,0,0,0,0,4.133,0,-1.957,0.75,0.5,1],"name":"cylinder-20","extras":{"archdiscStudioPrimitive":true,"archdiscStudioPrimitiveKind":"cylinder","pickable":true,"archdiscStudioKeyframes":[]},"mesh":7},{"matrix":[4.133,0,0,0,0,13.067,0,0,0,0,3.833,0,1.305,0.75,0.5,1],"name":"cylinder-21","extras":{"archdiscStudioPrimitive":true,"archdiscStudioPrimitiveKind":"cylinder","pickable":true,"archdiscStudioKeyframes":[]},"mesh":8},{"matrix":[63.133,0,0,0,0,1.367,0,0,0,0,48.133,0,-0.4,0.02,0.65,1],"name":"cube-22","extras":{"archdiscStudioPrimitive":true,"archdiscStudioPrimitiveKind":"cube","pickable":true,"archdiscStudioKeyframes":[]},"mesh":9},{"matrix":[41.133,0,0,0,0,30.133,0,0,0,0,2.133,0,-0.4,1.6,-1.978,1],"name":"cube-23","extras":{"archdiscStudioPrimitive":true,"archdiscStudioPrimitiveKind":"cube","pickable":true,"archdiscStudioKeyframes":[]},"mesh":10},{"matrix":[33.133,0,0,0,0,13.133,0,0,0,0,11.133,0,1.995,1.2,-1.7,1],"name":"cube-24","extras":{"archdiscStudioPrimitive":true,"archdiscStudioPrimitiveKind":"cube","pickable":true,"archdiscStudioKeyframes":[]},"mesh":11}],"bufferViews":[{"buffer":0,"byteOffset":0,"byteLength":288,"target":34962,"byteStride":12},{"buffer":0,"byteOffset":288,"byteLength":288,"target":34962,"byteStride":12},{"buffer":0,"byteOffset":576,"byteLength":192,"target":34962,"byteStride":8},{"buffer":0,"byteOffset":768,"byteLength":72,"target":34963},{"buffer":0,"byteOffset":840,"byteLength":288,"target":34962,"byteStride":12},{"buffer":0,"byteOffset":1128,"byteLength":288,"target":34962,"byteStride":12},{"buffer":0,"byteOffset":1416,"byteLength":192,"target":34962,"byteStride":8},{"buffer":0,"byteOffset":1608,"byteLength":72,"target":34963},{"buffer":0,"byteOffset":1680,"byteLength":288,"target":34962,"byteStride":12},{"buffer":0,"byteOffset":1968,"byteLength":288,"target":34962,"byteStride":12},{"buffer":0,"byteOffset":2256,"byteLength":192,"target":34962,"byteStride":8},{"buffer":0,"byteOffset":2448,"byteLength":72,"target":34963},{"buffer":0,"byteOffset":2520,"byteLength":288,"target":34962,"byteStride":12},{"buffer":0,"byteOffset":2808,"byteLength":288,"target":34962,"byteStride":12},{"buffer":0,"byteOffset":3096,"byteLength":192,"target":34962,"byteStride":8},{"buffer":0,"byteOffset":3288,"byteLength":72,"target":34963},{"buffer":0,"byteOffset":3360,"byteLength":288,"target":34962,"byteStride":12},{"buffer":0,"byteOffset":3648,"byteLength":288,"target":34962,"byteStride":12},{"buffer":0,"byteOffset":3936,"byteLength":192,"target":34962,"byteStride":8},{"buffer":0,"byteOffset":4128,"byteLength":72,"target":34963},{"buffer":0,"byteOffset":4200,"byteLength":288,"target":34962,"byteStride":12},{"buffer":0,"byteOffset":4488,"byteLength":288,"target":34962,"byteStride":12},{"buffer":0,"byteOffset":4776,"byteLength":192,"target":34962,"byteStride":8},{"buffer":0,"byteOffset":4968,"byteLength":72,"target":34963},{"buffer":0,"byteOffset":5040,"byteLength":288,"target":34962,"byteStride":12},{"buffer":0,"byteOffset":5328,"byteLength":288,"target":34962,"byteStride":12},{"buffer":0,"byteOffset":5616,"byteLength":192,"target":34962,"byteStride":8},{"buffer":0,"byteOffset":5808,"byteLength":72,"target":34963},{"buffer":0,"byteOffset":5880,"byteLength":2352,"target":34962,"byteStride":12},{"buffer":0,"byteOffset":8232,"byteLength":2352,"target":34962,"byteStride":12},{"buffer":0,"byteOffset":10584,"byteLength":1568,"target":34962,"byteStride":8},{"buffer":0,"byteOffset":12152,"byteLength":768,"target":34963},{"buffer":0,"byteOffset":12920,"byteLength":2352,"target":34962,"byteStride":12},{"buffer":0,"byteOffset":15272,"byteLength":2352,"target":34962,"byteStride":12},{"buffer":0,"byteOffset":17624,"byteLength":1568,"target":34962,"byteStride":8},{"buffer":0,"byteOffset":19192,"byteLength":768,"target":34963},{"buffer":0,"byteOffset":19960,"byteLength":288,"target":34962,"byteStride":12},{"buffer":0,"byteOffset":20248,"byteLength":288,"target":34962,"byteStride":12},{"buffer":0,"byteOffset":20536,"byteLength":192,"target":34962,"byteStride":8},{"buffer":0,"byteOffset":20728,"byteLength":72,"target":34963},{"buffer":0,"byteOffset":20800,"byteLength":288,"target":34962,"byteStride":12},{"buffer":0,"byteOffset":21088,"byteLength":288,"target":34962,"byteStride":12},{"buffer":0,"byteOffset":21376,"byteLength":192,"target":34962,"byteStride":8},{"buffer":0,"byteOffset":21568,"byteLength":72,"target":34963},{"buffer":0,"byteOffset":21640,"byteLength":288,"target":34962,"byteStride":12},{"buffer":0,"byteOffset":21928,"byteLength":288,"target":34962,"byteStride":12},{"buffer":0,"byteOffset":22216,"byteLength":192,"target":34962,"byteStride":8},{"buffer":0,"byteOffset":22408,"byteLength":72,"target":34963}],"buffers":[{"byteLength":22480,"uri":"data:application/octet-stream;base64,"}],"accessors":[{"bufferView":0,"componentType":5126,"count":24,"max":[0.014999999664723873,0.014999999664723873,0.014999999664723873],"min":[-0.014999999664723873,-0.014999999664723873,-0.014999999664723873],"type":"VEC3"},{"bufferView":1,"componentType":5126,"count":24,"max":[1,1,1],"min":[-1,-1,-1],"type":"VEC3"},{"bufferView":2,"componentType":5126,"count":24,"max":[1,1],"min":[0,0],"type":"VEC2"},{"bufferView":3,"componentType":5123,"count":36,"max":[23],"min":[0],"type":"SCALAR"},{"bufferView":4,"componentType":5126,"count":24,"max":[0.014999999664723873,0.014999999664723873,0.014999999664723873],"min":[-0.014999999664723873,-0.014999999664723873,-0.014999999664723873],"type":"VEC3"},{"bufferView":5,"componentType":5126,"count":24,"max":[1,1,1],"min":[-1,-1,-1],"type":"VEC3"},{"bufferView":6,"componentType":5126,"count":24,"max":[1,1],"min":[0,0],"type":"VEC2"},{"bufferView":7,"componentType":5123,"count":36,"max":[23],"min":[0],"type":"SCALAR"},{"bufferView":8,"componentType":5126,"count":24,"max":[0.014999999664723873,0.014999999664723873,0.014999999664723873],"min":[-0.014999999664723873,-0.014999999664723873,-0.014999999664723873],"type":"VEC3"},{"bufferView":9,"componentType":5126,"count":24,"max":[1,1,1],"min":[-1,-1,-1],"type":"VEC3"},{"bufferView":10,"componentType":5126,"count":24,"max":[1,1],"min":[0,0],"type":"VEC2"},{"bufferView":11,"componentType":5123,"count":36,"max":[23],"min":[0],"type":"SCALAR"},{"bufferView":12,"componentType":5126,"count":24,"max":[0.014999999664723873,0.014999999664723873,0.014999999664723873],"min":[-0.014999999664723873,-0.014999999664723873,-0.014999999664723873],"type":"VEC3"},{"bufferView":13,"componentType":5126,"count":24,"max":[1,1,1],"min":[-1,-1,-1],"type":"VEC3"},{"bufferView":14,"componentType":5126,"count":24,"max":[1,1],"min":[0,0],"type":"VEC2"},{"bufferView":15,"componentType":5123,"count":36,"max":[23],"min":[0],"type":"SCALAR"},{"bufferView":16,"componentType":5126,"count":24,"max":[0.014999999664723873,0.014999999664723873,0.014999999664723873],"min":[-0.014999999664723873,-0.014999999664723873,-0.014999999664723873],"type":"VEC3"},{"bufferView":17,"componentType":5126,"count":24,"max":[1,1,1],"min":[-1,-1,-1],"type":"VEC3"},{"bufferView":18,"componentType":5126,"count":24,"max":[1,1],"min":[0,0],"type":"VEC2"},{"bufferView":19,"componentType":5123,"count":36,"max":[23],"min":[0],"type":"SCALAR"},{"bufferView":20,"componentType":5126,"count":24,"max":[0.014999999664723873,0.014999999664723873,0.014999999664723873],"min":[-0.014999999664723873,-0.014999999664723873,-0.014999999664723873],"type":"VEC3"},{"bufferView":21,"componentType":5126,"count":24,"max":[1,1,1],"min":[-1,-1,-1],"type":"VEC3"},{"bufferView":22,"componentType":5126,"count":24,"max":[1,1],"min":[0,0],"type":"VEC2"},{"bufferView":23,"componentType":5123,"count":36,"max":[23],"min":[0],"type":"SCALAR"},{"bufferView":24,"componentType":5126,"count":24,"max":[0.014999999664723873,0.014999999664723873,0.014999999664723873],"min":[-0.014999999664723873,-0.014999999664723873,-0.014999999664723873],"type":"VEC3"},{"bufferView":25,"componentType":5126,"count":24,"max":[1,1,1],"min":[-1,-1,-1],"type":"VEC3"},{"bufferView":26,"componentType":5126,"count":24,"max":[1,1],"min":[0,0],"type":"VEC2"},{"bufferView":27,"componentType":5123,"count":36,"max":[23],"min":[0],"type":"SCALAR"},{"bufferView":28,"componentType":5126,"count":196,"max":[0.014999999664723873,0.014999999664723873,0.014999999664723873],"min":[-0.014999999664723873,-0.014999999664723873,-0.014999999664723873],"type":"VEC3"},{"bufferView":29,"componentType":5126,"count":196,"max":[1,1,1],"min":[-1,-1,-1],"type":"VEC3"},{"bufferView":30,"componentType":5126,"count":196,"max":[1,1],"min":[0,0],"type":"VEC2"},{"bufferView":31,"componentType":5123,"count":384,"max":[195],"min":[0],"type":"SCALAR"},{"bufferView":32,"componentType":5126,"count":196,"max":[0.014999999664723873,0.014999999664723873,0.014999999664723873],"min":[-0.014999999664723873,-0.014999999664723873,-0.014999999664723873],"type":"VEC3"},{"bufferView":33,"componentType":5126,"count":196,"max":[1,1,1],"min":[-1,-1,-1],"type":"VEC3"},{"bufferView":34,"componentType":5126,"count":196,"max":[1,1],"min":[0,0],"type":"VEC2"},{"bufferView":35,"componentType":5123,"count":384,"max":[195],"min":[0],"type":"SCALAR"},{"bufferView":36,"componentType":5126,"count":24,"max":[0.014999999664723873,0.014999999664723873,0.014999999664723873],"min":[-0.014999999664723873,-0.014999999664723873,-0.014999999664723873],"type":"VEC3"},{"bufferView":37,"componentType":5126,"count":24,"max":[1,1,1],"min":[-1,-1,-1],"type":"VEC3"},{"bufferView":38,"componentType":5126,"count":24,"max":[1,1],"min":[0,0],"type":"VEC2"},{"bufferView":39,"componentType":5123,"count":36,"max":[23],"min":[0],"type":"SCALAR"},{"bufferView":40,"componentType":5126,"count":24,"max":[0.014999999664723873,0.014999999664723873,0.014999999664723873],"min":[-0.014999999664723873,-0.014999999664723873,-0.014999999664723873],"type":"VEC3"},{"bufferView":41,"componentType":5126,"count":24,"max":[1,1,1],"min":[-1,-1,-1],"type":"VEC3"},{"bufferView":42,"componentType":5126,"count":24,"max":[1,1],"min":[0,0],"type":"VEC2"},{"bufferView":43,"componentType":5123,"count":36,"max":[23],"min":[0],"type":"SCALAR"},{"bufferView":44,"componentType":5126,"count":24,"max":[0.014999999664723873,0.014999999664723873,0.014999999664723873],"min":[-0.014999999664723873,-0.014999999664723873,-0.014999999664723873],"type":"VEC3"},{"bufferView":45,"componentType":5126,"count":24,"max":[1,1,1],"min":[-1,-1,-1],"type":"VEC3"},{"bufferView":46,"componentType":5126,"count":24,"max":[1,1],"min":[0,0],"type":"VEC2"},{"bufferView":47,"componentType":5123,"count":36,"max":[23],"min":[0],"type":"SCALAR"}],"materials":[{"pbrMetallicRoughness":{"baseColorFactor":[0.6866853124288864,0.6104955708001716,0.4910208498384856,1],"metallicFactor":0,"roughnessFactor":0.78}},{"pbrMetallicRoughness":{"baseColorFactor":[0.6866853124288864,0.6104955708001716,0.4910208498384856,1],"metallicFactor":0,"roughnessFactor":0.78}},{"pbrMetallicRoughness":{"baseColorFactor":[0.6866853124288864,0.6104955708001716,0.4910208498384856,1],"metallicFactor":0,"roughnessFactor":0.78}},{"pbrMetallicRoughness":{"baseColorFactor":[0.6866853124288864,0.6104955708001716,0.4910208498384856,1],"metallicFactor":0,"roughnessFactor":0.78}},{"pbrMetallicRoughness":{"baseColorFactor":[0.6866853124288864,0.6104955708001716,0.4910208498384856,1],"metallicFactor":0,"roughnessFactor":0.78}},{"pbrMetallicRoughness":{"baseColorFactor":[0.6866853124288864,0.6104955708001716,0.4910208498384856,1],"metallicFactor":0,"roughnessFactor":0.78}},{"pbrMetallicRoughness":{"baseColorFactor":[0.6866853124288864,0.6104955708001716,0.4910208498384856,1],"metallicFactor":0,"roughnessFactor":0.78}},{"pbrMetallicRoughness":{"baseColorFactor":[0.6866853124288864,0.6104955708001716,0.4910208498384856,1],"metallicFactor":0,"roughnessFactor":0.78}},{"pbrMetallicRoughness":{"baseColorFactor":[0.6866853124288864,0.6104955708001716,0.4910208498384856,1],"metallicFactor":0,"roughnessFactor":0.78}},{"pbrMetallicRoughness":{"baseColorFactor":[0.6866853124288864,0.6104955708001716,0.4910208498384856,1],"metallicFactor":0,"roughnessFactor":0.78}},{"pbrMetallicRoughness":{"baseColorFactor":[0.6866853124288864,0.6104955708001716,0.4910208498384856,1],"metallicFactor":0,"roughnessFactor":0.78}},{"pbrMetallicRoughness":{"baseColorFactor":[0.6866853124288864,0.6104955708001716,0.4910208498384856,1],"metallicFactor":0,"roughnessFactor":0.78}}],"meshes":[{"primitives":[{"mode":4,"attributes":{"POSITION":0,"NORMAL":1,"TEXCOORD_0":2},"indices":3,"material":0}]},{"primitives":[{"mode":4,"attributes":{"POSITION":4,"NORMAL":5,"TEXCOORD_0":6},"indices":7,"material":1}]},{"primitives":[{"mode":4,"attributes":{"POSITION":8,"NORMAL":9,"TEXCOORD_0":10},"indices":11,"material":2}]},{"primitives":[{"mode":4,"attributes":{"POSITION":12,"NORMAL":13,"TEXCOORD_0":14},"indices":15,"material":3}]},{"primitives":[{"mode":4,"attributes":{"POSITION":16,"NORMAL":17,"TEXCOORD_0":18},"indices":19,"material":4}]},{"primitives":[{"mode":4,"attributes":{"POSITION":20,"NORMAL":21,"TEXCOORD_0":22},"indices":23,"material":5}]},{"primitives":[{"mode":4,"attributes":{"POSITION":24,"NORMAL":25,"TEXCOORD_0":26},"indices":27,"material":6}]},{"primitives":[{"mode":4,"attributes":{"POSITION":28,"NORMAL":29,"TEXCOORD_0":30},"indices":31,"material":7}]},{"primitives":[{"mode":4,"attributes":{"POSITION":32,"NORMAL":33,"TEXCOORD_0":34},"indices":35,"material":8}]},{"primitives":[{"mode":4,"attributes":{"POSITION":36,"NORMAL":37,"TEXCOORD_0":38},"indices":39,"material":9}]},{"primitives":[{"mode":4,"attributes":{"POSITION":40,"NORMAL":41,"TEXCOORD_0":42},"indices":43,"material":10}]},{"primitives":[{"mode":4,"attributes":{"POSITION":44,"NORMAL":45,"TEXCOORD_0":46},"indices":47,"material":11}]}]}